# xmcd
# 
# Track frame offsets:
#     150
#     13970
#     29810
#     50475
#     65790
#     80660
#     95950
#     111840
#     126260
#     142430
#     158035
#     179650
#     201087
#     219276
#     239705
#     259800
#     281725
#     298215
#     317457
#     335066
# 
# Disc length: 4681
# 
# Revision: 3
# Processed by: cddbd v1.5.2PL0 Copyright (c) Steve Scherf et al.
# Submitted via: fre:ac v1.0.27
# 
DISCID=57124714
DTITLE=Van McCoy and The Soul City Symphony - African Symphony
DYEAR=2008
DGENRE=Symphony
TTITLE0=African Symphony
TTITLE1=The Hustle
TTITLE2=A Rainy Night In Georgia
TTITLE3=Love Is The Answer
TTITLE4=Back Stabbers
TTITLE5=Boogie Down
TTITLE6=You Are The Sunshine Of My Life
TTITLE7=Doctor's Orders
TTITLE8=Fire
TTITLE9=Disco Kid
TTITLE10=Earthquake
TTITLE11=Theme From Star Trek
TTITLE12=Keep On Hustlin'
TTITLE13=Love At First Sight
TTITLE14=(to Each His Own) That's My Philosophy
TTITLE15=Pick Up The Pieses
TTITLE16=Killing Me Softly
TTITLE17=Jet Setting
TTITLE18=Touch Me In The Morning
TTITLE19=DIsco Baby
EXTD=YEAR: 2008
EXTT0=
EXTT1=
EXTT2=
EXTT3=
EXTT4=
EXTT5=
EXTT6=
EXTT7=
EXTT8=
EXTT9=
EXTT10=
EXTT11=
EXTT12=
EXTT13=
EXTT14=
EXTT15=
EXTT16=
EXTT17=
EXTT18=
EXTT19=
PLAYORDER=
